<?xml version="1.0" encoding="UTF-8"?>
<svg width="720" height="1440" viewBox="0 0 720 1440" fill="none" xmlns="http://www.w3.org/2000/svg">
  <defs>
    <linearGradient id="paint0_linear" x1="360" y1="0" x2="360" y2="1440" gradientUnits="userSpaceOnUse">
      <stop stop-color="#101338" />
      <stop offset="1" stop-color="#0B0D29" />
    </linearGradient>
    <linearGradient id="paint1_linear" x1="118" y1="160" x2="602" y2="1320" gradientUnits="userSpaceOnUse">
      <stop stop-color="#1F2BFF" stop-opacity="0.8" />
      <stop offset="1" stop-color="#FF66BC" stop-opacity="0.5" />
    </linearGradient>
    <filter id="shadow" x="0" y="40" width="720" height="1400" filterUnits="userSpaceOnUse" color-interpolation-filters="sRGB">
      <feFlood flood-opacity="0" result="BackgroundImageFix" />
      <feGaussianBlur in="SourceAlpha" stdDeviation="24" />
      <feOffset dy="20" />
      <feComposite in2="hardAlpha" operator="out" />
      <feColorMatrix type="matrix" values="0 0 0 0 0.2 0 0 0 0 0.24 0 0 0 0 0.6 0 0 0 0.35 0" />
      <feBlend mode="normal" in2="BackgroundImageFix" result="effect1_dropShadow" />
      <feBlend mode="normal" in="SourceGraphic" in2="effect1_dropShadow" result="shape" />
    </filter>
  </defs>
  <g filter="url(#shadow)">
    <rect x="60" y="60" width="600" height="1320" rx="90" fill="url(#paint0_linear)" />
    <rect x="100" y="120" width="520" height="1200" rx="60" fill="#0F1230" />
    <rect x="180" y="120" width="360" height="30" rx="15" fill="#0F1230" />
    <g opacity="0.3">
      <rect x="160" y="260" width="400" height="280" rx="36" fill="url(#paint1_linear)" />
      <rect x="200" y="320" width="320" height="56" rx="28" fill="#101540" />
      <rect x="220" y="418" width="180" height="32" rx="16" fill="#161C53" />
      <rect x="220" y="470" width="280" height="24" rx="12" fill="#161C53" />
    </g>
    <g opacity="0.84">
      <rect x="160" y="610" width="400" height="140" rx="28" fill="#13173F" />
      <rect x="200" y="650" width="180" height="32" rx="16" fill="#5F6CFF" />
      <rect x="200" y="695" width="260" height="20" rx="10" fill="#1D2357" />
    </g>
    <g opacity="0.92">
      <rect x="160" y="790" width="400" height="280" rx="36" fill="#13173F" />
      <rect x="200" y="830" width="200" height="32" rx="16" fill="#FF66BC" />
      <rect x="200" y="880" width="240" height="20" rx="10" fill="#1D2357" />
      <rect x="200" y="920" width="280" height="20" rx="10" fill="#1D2357" />
      <rect x="200" y="960" width="200" height="20" rx="10" fill="#1D2357" />
    </g>
    <g opacity="0.75">
      <rect x="160" y="1100" width="190" height="160" rx="36" fill="#121431" />
      <rect x="190" y="1155" width="130" height="28" rx="14" fill="#3039A6" />
      <rect x="190" y="1200" width="110" height="18" rx="9" fill="#1B205A" />
    </g>
    <g opacity="0.75">
      <rect x="370" y="1100" width="190" height="160" rx="36" fill="#121431" />
      <rect x="400" y="1155" width="130" height="28" rx="14" fill="#FF7BC7" />
      <rect x="400" y="1200" width="110" height="18" rx="9" fill="#1B205A" />
    </g>
  </g>
</svg>
