<?xml version="1.0" encoding="UTF-8"?>
<svg width="128" height="128" viewBox="0 0 128 128" fill="none" xmlns="http://www.w3.org/2000/svg">
  <rect width="128" height="128" rx="36" fill="#11153A" />
  <path
    d="M64 26c-21 0-38 17-38 38s17 38 38 38c13.25 0 25-6.63 31.77-16.8 1.5-2.23-1.35-4.83-3.3-3-5.9 5.55-13.77 8.96-22.47 8.96-17.12 0-31-13.88-31-31s13.88-31 31-31c9.3 0 17.66 4.1 23.44 10.6 1.78 1.98 5.13.39 4.37-2.18C93.16 33.42 80.2 26 64 26z"
    fill="#6C74FF"
  />
  <path
    d="M91 26c-2.8 0-5.07 2.27-5.07 5.07 0 2.8 2.27 5.07 5.07 5.07 2.8 0 5.07-2.27 5.07-5.07C96.07 28.27 93.8 26 91 26z"
    fill="#FF66BC"
  />
</svg>
